<?xml version="1.0" standalone="no"?>
<!DOCTYPE svg PUBLIC "-//W3C//DTD SVG 20010904//EN"
 "http://www.w3.org/TR/2001/REC-SVG-20010904/DTD/svg10.dtd">
<svg version="1.0" xmlns="http://www.w3.org/2000/svg"
 width="648.000000pt" height="1440.000000pt" viewBox="0 0 648.000000 1440.000000"
 preserveAspectRatio="xMidYMid meet">
<metadata>
Created by potrace 1.16, written by Peter Selinger 2001-2019
</metadata>
<g transform="translate(0.000000,1440.000000) scale(0.100000,-0.100000)"
fill="#000000" stroke="none">
<path d="M734 13951 c-140 -23 -206 -66 -256 -169 l-33 -67 0 -425 c1 -296 4
-433 12 -450 10 -22 12 -15 14 50 1 41 4 63 6 49 3 -22 8 -25 29 -21 18 3 23
9 19 22 -4 12 2 24 16 33 16 12 20 23 17 45 -3 22 -1 29 9 25 7 -3 13 -11 13
-19 0 -8 4 -14 10 -14 13 0 30 34 30 60 0 11 7 34 15 51 14 26 18 28 37 18 25
-14 41 4 33 39 -3 12 -1 22 5 22 5 0 10 7 10 15 0 8 8 15 18 15 24 0 42 19 35
36 -3 8 1 14 11 14 9 0 16 -7 16 -15 0 -8 5 -15 11 -15 5 0 7 6 3 13 -5 6 9
-1 29 -16 20 -15 37 -23 37 -18 0 6 9 11 20 11 11 0 20 -4 20 -10 0 -14 27
-12 33 3 3 6 6 1 7 -13 2 -23 3 -23 9 5 4 17 6 53 6 80 0 49 -1 50 -32 53 -21
2 -33 9 -33 18 0 8 5 12 10 9 9 -6 12 -2 14 28 1 6 9 20 19 30 10 10 15 21 13
26 -6 9 63 32 76 25 4 -3 5 2 2 10 -3 9 -10 16 -15 16 -21 0 -7 20 19 26 37 9
54 24 47 42 -4 10 0 13 13 10 15 -4 18 -1 14 20 l-5 24 82 -7 c57 -5 81 -4 81
4 0 6 -17 11 -40 11 -22 0 -40 5 -40 10 0 6 9 10 21 10 11 0 18 4 15 9 -3 4
19 11 48 15 76 8 84 13 78 42 -2 13 0 24 5 24 5 0 15 11 21 25 8 17 19 24 34
23 50 -4 177 75 178 110 0 19 5 22 40 22 22 0 40 -4 40 -10 0 -5 5 -10 11 -10
5 0 8 4 4 9 -3 5 5 12 17 14 13 2 -40 5 -117 6 -77 0 -291 3 -475 6 -184 2
-358 0 -386 -4z"/>
<path d="M5100 13951 c-146 -4 -256 -8 -245 -9 15 -2 17 -4 7 -11 -11 -7 -11
-11 2 -24 21 -21 20 -24 -10 -31 -19 -5 -24 -10 -17 -17 8 -8 18 -7 34 1 20
11 25 10 41 -9 12 -16 24 -21 38 -16 19 6 20 3 15 -22 -4 -15 -8 -34 -11 -40
-2 -8 5 -13 16 -13 11 0 20 6 20 14 0 14 21 26 46 26 8 0 20 -13 25 -30 14
-39 24 -38 40 3 11 29 13 30 16 10 3 -15 12 -23 24 -23 12 0 23 -10 29 -25 8
-22 15 -25 47 -23 35 3 37 1 44 -31 4 -19 20 -44 36 -57 27 -22 27 -23 6 -24
-13 0 -23 -4 -23 -9 0 -5 9 -7 19 -4 28 7 61 -14 54 -35 -5 -15 -4 -15 9 1 21
27 73 20 72 -10 0 -20 1 -20 20 -7 27 19 38 18 35 -3 -3 -36 1 -44 23 -41 15
2 24 -3 26 -15 3 -15 0 -18 -18 -12 -32 10 -44 -14 -18 -37 27 -23 24 -23 60
12 16 17 35 30 43 30 20 0 26 -28 10 -44 -8 -8 -15 -19 -15 -24 0 -6 -7 -12
-15 -16 -8 -3 -15 -10 -15 -16 0 -5 7 -10 15 -10 8 0 15 -7 15 -16 0 -13 3
-14 14 -5 12 10 17 8 25 -8 6 -11 12 -29 14 -41 4 -27 26 -41 53 -34 27 7 38
-9 24 -36 -9 -16 -6 -24 13 -44 20 -20 23 -31 20 -70 -3 -36 -1 -45 10 -40 7
2 20 -2 27 -11 11 -13 9 -15 -14 -15 -14 0 -26 -4 -26 -10 0 -5 7 -10 16 -10
8 0 13 -4 10 -9 -7 -11 17 -21 51 -21 21 0 23 -3 14 -14 -9 -11 -9 -15 0 -18
7 -2 12 -20 12 -39 0 -18 4 -40 10 -46 11 -15 47 -17 47 -3 0 6 5 10 12 10 9
0 9 -3 0 -12 -16 -16 -15 -38 2 -38 20 0 44 -41 48 -81 2 -21 8 -33 16 -32 6
2 12 -1 12 -6 0 -5 3 -16 6 -24 3 -8 -2 -21 -11 -30 -9 -10 -11 -18 -5 -22 5
-3 10 -31 10 -62 0 -47 2 -54 14 -44 12 10 15 67 16 319 2 686 1 808 -10 857
-26 115 -99 195 -210 230 -65 20 -296 25 -720 16z"/>
<path d="M2849 12715 c-19 -13 -51 -33 -71 -45 -22 -12 -54 -45 -79 -83 -51
-76 -51 -75 -56 -59 -6 17 -23 5 -23 -18 0 -24 -21 -31 -44 -14 -11 7 -23 11
-27 8 -23 -14 -5 18 25 44 31 27 36 42 16 42 -4 0 -38 -29 -76 -64 -70 -65
-90 -73 -81 -30 2 13 0 24 -4 24 -5 0 -9 -13 -9 -29 0 -27 -4 -30 -51 -42 -49
-13 -101 -53 -141 -110 -14 -20 -19 -22 -27 -9 -9 12 -12 12 -28 -2 -10 -8
-33 -18 -51 -21 -20 -4 -46 -22 -69 -46 -30 -33 -40 -38 -55 -30 -10 6 -16 14
-13 20 4 5 -6 9 -21 9 -17 0 -42 -14 -69 -37 -105 -93 -115 -98 -236 -100 -60
-1 -118 -7 -128 -13 -12 -6 -22 -26 -26 -49 -7 -43 -56 -126 -80 -135 -10 -4
-15 -20 -15 -50 0 -43 -1 -45 -32 -49 -32 -4 -32 -4 5 -5 31 -2 37 -5 33 -19
-16 -58 -24 -104 -24 -147 0 -52 -17 -76 -54 -76 -9 0 -22 -9 -28 -20 -6 -11
-20 -20 -31 -20 -50 0 -109 -78 -109 -145 0 -19 -8 -39 -20 -50 -11 -10 -20
-24 -20 -30 0 -14 -101 -121 -139 -147 -30 -20 -38 -63 -9 -47 12 7 18 6 18
-1 0 -6 -8 -14 -17 -17 -10 -4 -37 -20 -59 -35 -23 -15 -46 -28 -51 -28 -16 0
-45 -38 -38 -50 4 -7 18 0 38 20 38 38 60 40 26 3 -36 -40 -62 -84 -53 -91 4
-4 9 0 12 8 8 24 82 95 82 79 0 -21 -114 -199 -135 -211 -7 -4 -20 -19 -29
-32 -14 -22 -14 -25 -1 -20 17 7 21 -11 5 -21 -5 -3 -10 -34 -10 -67 0 -42 -5
-67 -16 -79 -9 -10 -17 -30 -17 -46 -1 -15 -6 -31 -12 -35 -5 -4 0 -8 13 -8
12 0 22 -4 22 -10 0 -5 5 -10 11 -10 5 0 8 4 5 8 -7 12 107 -7 119 -19 6 -6 5
-13 -5 -20 -11 -8 -8 -9 13 -4 20 4 27 2 22 -6 -12 -18 -70 -38 -95 -32 -20 5
-22 3 -16 -25 6 -23 3 -33 -10 -40 -16 -9 -15 -14 14 -66 35 -61 43 -123 17
-132 -8 -4 -15 -12 -15 -19 0 -6 -6 -25 -14 -41 -8 -16 -17 -40 -21 -52 -6
-21 -4 -23 14 -17 12 4 21 2 21 -4 0 -6 -9 -11 -19 -11 -16 0 -21 -10 -26 -55
-5 -36 -3 -66 5 -85 7 -16 10 -35 8 -42 -3 -7 1 -31 8 -54 7 -25 10 -66 7
-104 -4 -43 -3 -61 4 -57 7 4 13 -9 16 -36 3 -23 14 -69 26 -102 11 -33 30
-92 41 -131 11 -40 31 -83 45 -98 14 -15 25 -31 25 -35 0 -5 7 -14 15 -21 21
-18 19 -33 -5 -27 -11 3 -20 1 -20 -4 0 -12 34 -83 43 -90 4 -3 9 -21 10 -40
1 -19 6 -40 11 -48 8 -13 -10 -33 -26 -28 -4 1 -22 27 -40 57 -25 42 -39 56
-60 58 -32 4 -35 -5 -44 -108 -10 -115 -4 -221 13 -258 9 -18 13 -35 10 -39
-10 -9 23 -65 36 -61 7 2 21 23 32 46 11 23 22 42 26 42 11 0 16 -71 6 -77 -5
-3 -2 -10 6 -15 13 -7 14 -14 7 -34 -13 -33 -4 -47 23 -38 18 5 20 4 10 -7
-20 -20 -15 -68 9 -102 19 -26 23 -46 24 -108 l0 -76 -34 3 c-32 2 -34 1 -30
-26 6 -38 -14 -29 -35 16 -18 36 -37 38 -37 4 0 -24 -20 -36 -31 -19 -6 10 -9
7 -9 -11 -1 -26 -41 -80 -61 -80 -7 0 -9 -9 -5 -25 5 -18 2 -27 -9 -31 -8 -4
-15 -12 -15 -20 0 -8 -4 -14 -10 -14 -17 0 -51 -40 -70 -84 -11 -22 -28 -51
-39 -63 -12 -12 -21 -28 -21 -35 0 -7 -9 -26 -20 -43 -11 -16 -20 -38 -20 -47
0 -9 -6 -21 -14 -25 -8 -4 -22 -35 -31 -68 -9 -33 -25 -67 -34 -75 -25 -22
-43 -68 -29 -72 8 -3 7 -11 -4 -26 -8 -12 -18 -19 -22 -14 -5 4 -7 0 -5 -8 2
-8 -3 -26 -11 -40 -13 -22 -15 -453 -18 -3320 -2 -2407 0 -3312 8 -3360 23
-134 85 -220 189 -262 l56 -23 2550 0 c2418 0 2553 1 2601 18 72 25 126 68
158 126 59 110 56 -82 56 3152 0 1995 -4 2993 -11 3049 -11 87 -28 125 -57
125 -11 0 -18 9 -20 29 -3 21 0 26 10 20 8 -5 6 2 -4 19 -10 14 -18 34 -18 43
0 9 -8 18 -19 21 -10 2 -24 16 -30 29 -6 13 -17 25 -26 25 -36 3 -40 5 -37 22
4 23 -15 22 -28 -3 -14 -27 -28 -25 -36 5 -4 15 -11 22 -18 18 -6 -3 -6 -1 2
8 6 7 12 24 12 36 0 21 -3 22 -20 13 -29 -15 -41 -4 -30 26 13 32 6 44 -20 37
-26 -7 -46 10 -53 47 -6 26 -20 49 -54 85 -7 8 -13 21 -13 29 0 9 -6 16 -14
16 -9 0 -12 -8 -8 -25 2 -14 0 -25 -6 -25 -5 0 -12 -7 -16 -15 -3 -9 0 -15 9
-15 8 0 15 7 15 15 0 8 5 15 10 15 24 0 7 -31 -20 -37 -35 -6 -42 -41 -12 -59
16 -10 19 -29 13 -75 -1 -4 -9 -9 -19 -11 -13 -4 -18 1 -19 15 -1 11 -12 28
-23 39 -15 14 -18 24 -11 31 7 7 7 16 0 29 -6 10 -7 27 -4 38 3 11 0 22 -8 27
-8 4 -17 22 -20 38 -3 17 -8 37 -12 46 -4 10 6 28 25 49 33 35 33 40 1 43 -14
1 -19 7 -17 17 10 34 9 76 -2 97 -10 18 -10 27 0 43 9 13 10 23 3 28 -15 11
-18 61 -4 78 6 8 9 17 5 21 -3 3 -6 1 -6 -5 0 -7 -5 -12 -11 -12 -5 0 -8 4 -4
9 3 5 -4 13 -16 16 -20 7 -20 8 -3 26 12 13 17 33 15 60 -3 55 6 80 26 72 11
-4 14 -2 11 8 -3 8 -13 14 -24 14 -20 0 -21 3 -10 48 4 16 2 27 -4 27 -5 0
-10 8 -10 17 0 10 -11 27 -23 38 -15 13 -26 35 -29 62 -5 36 -49 112 -70 121
-5 2 -8 8 -8 14 0 20 -76 78 -103 78 -7 0 -18 14 -24 31 -8 20 -17 30 -26 26
-7 -3 -22 6 -32 19 -10 13 -23 24 -30 24 -7 0 -19 7 -26 16 -7 9 -23 20 -35
24 -31 12 -41 66 -39 213 2 91 -1 127 -9 127 -6 0 -12 8 -13 18 -1 9 -5 39 -9
65 -4 28 -2 57 4 70 29 61 82 253 80 294 -1 37 26 128 57 195 14 29 25 61 25
71 0 9 5 17 10 17 6 0 10 6 10 13 0 7 11 29 25 49 13 20 36 81 51 135 23 89
26 117 27 313 1 172 -2 233 -16 305 -22 106 -41 175 -58 206 -7 13 -12 38 -11
56 1 22 -6 40 -20 53 -16 15 -18 22 -10 33 9 10 9 20 -1 40 -6 15 -15 27 -18
27 -4 0 -12 21 -19 48 -8 26 -19 56 -26 67 -18 29 -29 95 -15 95 6 0 13 -11
17 -25 3 -14 10 -25 15 -25 12 0 12 -4 -15 97 -25 94 -52 149 -86 173 -11 8
-20 20 -20 27 0 7 -4 13 -10 13 -17 0 -11 -21 10 -38 19 -15 19 -19 7 -36 -14
-19 -16 -18 -36 23 -13 24 -20 45 -18 48 3 2 0 19 -8 36 -7 18 -11 37 -8 43 2
6 -3 17 -12 24 -8 7 -15 17 -15 23 0 16 -44 52 -65 52 -21 0 -23 6 -30 95 -2
25 -4 48 -4 53 -1 4 -10 7 -21 7 -23 0 -81 27 -91 42 -4 6 -15 6 -29 -2 -27
-14 -40 -4 -44 34 -2 15 -11 35 -20 45 -9 9 -16 30 -16 44 0 16 -6 27 -14 27
-7 0 -27 26 -42 57 -19 37 -45 69 -76 92 -26 20 -47 43 -47 52 -2 31 -51 82
-107 110 -31 16 -63 29 -70 29 -17 0 -18 17 -1 23 10 4 10 6 0 6 -27 2 -11 21
17 21 30 0 41 -14 18 -23 -8 -3 -6 -6 5 -6 10 -1 29 -8 43 -17 34 -23 42 -9
13 22 -38 41 -96 63 -156 58 -38 -2 -53 0 -57 11 -3 8 -12 15 -20 15 -23 0
-29 31 -6 37 11 3 17 9 14 14 -8 14 -52 11 -77 -5 -12 -8 -33 -17 -46 -21 -22
-7 -23 -5 -17 27 3 18 3 27 0 21 -3 -7 -12 -13 -20 -13 -8 0 -14 -4 -14 -9 0
-5 -20 -14 -45 -20 -41 -10 -45 -14 -45 -41 0 -20 5 -30 15 -30 25 0 17 -27
-9 -32 -32 -6 -45 2 -43 27 1 11 -5 21 -15 23 -28 6 -52 -59 -45 -126 5 -54 5
-55 -8 -26 -7 18 -18 35 -24 38 -26 16 -2 146 27 146 10 0 12 6 7 23 -14 43
-13 102 3 120 15 16 14 17 -1 11 -15 -5 -16 -3 -8 19 8 22 6 28 -14 41 -28 18
-51 21 -60 6 -11 -18 -43 -11 -60 13 -8 12 -25 23 -38 24 -12 0 -53 3 -92 6
-38 2 -86 8 -107 12 -31 6 -38 4 -48 -16 -7 -12 -32 -43 -56 -67 -24 -24 -44
-48 -44 -53 0 -12 -60 0 -87 17 -23 14 -52 20 -40 7 4 -3 -5 -12 -20 -20 -30
-15 -43 -5 -43 35 0 12 -4 22 -9 22 -5 0 -13 10 -17 23 -3 12 -16 35 -27 51
-16 23 -17 30 -6 37 10 6 8 9 -9 9 -20 0 -21 3 -12 20 14 26 36 26 43 -1 4
-15 12 -20 29 -17 34 5 35 41 2 67 -35 28 -73 27 -115 -4z m-366 -1437 c23
-23 50 -41 59 -40 22 4 38 -66 18 -78 -7 -4 -10 -14 -8 -21 3 -8 -8 -30 -23
-50 -16 -20 -26 -38 -23 -41 2 -3 -2 -11 -11 -18 -8 -7 -15 -19 -15 -27 0 -8
-7 -27 -15 -44 -14 -27 -14 -31 0 -45 18 -19 18 -24 0 -48 -11 -14 -12 -23 -4
-33 6 -7 16 -10 22 -6 6 3 7 1 3 -5 -4 -6 5 -17 20 -25 30 -16 24 -23 -27 -32
-18 -3 -36 -10 -40 -16 -7 -11 -39 -1 -39 12 0 5 -4 9 -10 9 -5 0 -10 -9 -10
-21 0 -15 5 -19 15 -15 8 3 15 1 15 -4 0 -5 -8 -11 -17 -13 -14 -4 -12 -5 5
-6 12 0 22 -5 22 -11 0 -14 -33 -12 -49 3 -11 10 -13 9 -7 -6 3 -10 6 -23 6
-29 0 -6 7 -8 15 -4 8 3 15 1 15 -3 0 -5 -5 -11 -12 -13 -7 -3 -9 -12 -4 -24
7 -17 9 -17 19 -4 27 35 131 111 144 105 8 -3 26 4 40 15 26 20 63 19 90 -3
16 -12 7 -55 -18 -83 -23 -25 -24 -34 -4 -34 8 0 15 6 15 13 0 8 3 7 10 -3 7
-12 12 -12 29 4 12 11 21 28 21 39 0 14 3 17 13 9 13 -11 47 7 47 25 0 16 51
12 57 -4 3 -8 1 -19 -6 -26 -6 -6 -11 -18 -11 -26 0 -9 -7 -29 -15 -45 -15
-28 -14 -28 7 -22 13 4 37 9 53 12 17 4 32 9 35 13 3 5 19 11 35 15 88 20 106
23 111 15 3 -5 14 -9 25 -9 10 0 19 -4 19 -10 0 -5 7 -10 15 -10 9 0 27 -11
39 -25 13 -14 28 -25 32 -23 12 3 51 -19 75 -43 10 -10 29 -19 41 -19 12 0 19
-3 15 -6 -3 -3 6 -17 21 -31 24 -22 25 -25 9 -34 -9 -6 -17 -17 -17 -24 0 -9
-10 -15 -25 -15 -16 0 -25 -6 -25 -15 0 -13 4 -14 21 -5 18 10 19 10 10 -8 -6
-11 -26 -23 -46 -26 -26 -5 -35 -12 -35 -26 0 -11 -9 -24 -19 -30 -13 -6 -17
-17 -14 -30 6 -24 19 -26 27 -4 7 17 31 14 31 -4 0 -19 13 -19 34 0 16 13 27
15 52 8 31 -9 31 -9 14 10 -12 13 -14 20 -5 20 7 0 10 7 6 15 -3 8 -1 15 4 15
6 0 10 -5 10 -11 0 -6 9 -8 22 -3 20 6 21 5 9 -9 -11 -15 -10 -18 13 -27 25
-9 38 -50 16 -50 -5 0 -10 -4 -10 -10 0 -5 10 -10 21 -10 19 0 21 4 16 30 -6
26 -3 30 14 30 16 0 20 -5 17 -27 -2 -21 2 -29 17 -31 17 -4 18 -2 6 12 -12
14 -11 16 8 16 12 0 21 6 21 15 0 9 6 12 15 9 8 -4 15 -1 15 5 0 18 37 -9 49
-36 16 -34 28 -28 23 12 -3 25 0 35 9 35 9 0 14 -12 15 -33 1 -49 13 -89 25
-81 8 4 7 10 0 17 -14 14 -14 27 0 27 7 0 18 8 25 18 12 15 13 8 12 -50 -1
-68 -9 -83 -26 -51 -8 13 -11 8 -17 -25 -4 -23 -10 -40 -15 -37 -4 3 -10 -6
-14 -18 -5 -23 -8 -23 -63 -16 -65 9 -93 4 -93 -16 0 -7 -10 -15 -22 -17 -15
-2 -24 -11 -26 -26 -2 -13 -8 -20 -14 -16 -6 4 -22 -6 -35 -22 -14 -17 -21
-21 -17 -10 5 14 3 17 -12 14 -11 -2 -18 -11 -16 -21 2 -11 -6 -19 -25 -23
-41 -10 -45 -14 -32 -30 7 -9 8 -14 1 -14 -6 0 -14 5 -17 10 -10 16 -23 12
-30 -10 -4 -11 -11 -18 -16 -15 -5 4 -9 1 -9 -5 0 -11 -78 -10 -105 1 -13 5
-16 -2 -9 -27 4 -16 11 -20 26 -16 14 3 19 1 14 -6 -4 -7 -2 -12 3 -12 6 0 11
-4 11 -10 0 -5 -11 -10 -25 -10 -19 0 -23 -4 -18 -17 4 -10 2 -14 -4 -10 -6 4
-10 -8 -11 -28 -1 -27 3 -35 16 -35 9 0 28 -3 42 -6 24 -6 24 -6 5 9 -31 24
-11 30 31 9 l37 -19 -26 -7 c-26 -6 -38 -26 -17 -26 6 0 10 -7 10 -16 0 -9 8
-14 18 -13 36 3 52 -2 52 -17 0 -8 5 -12 10 -9 9 6 15 -23 12 -64 0 -8 10 -38
23 -68 13 -29 34 -88 46 -130 11 -42 27 -83 35 -90 8 -8 14 -22 14 -32 0 -10
15 -38 33 -62 17 -24 52 -82 76 -129 24 -47 50 -92 57 -101 8 -8 14 -23 14
-32 0 -9 6 -16 13 -15 6 2 11 -5 9 -14 -2 -10 3 -18 10 -18 7 0 18 -10 23 -22
6 -13 24 -27 40 -33 17 -5 38 -20 48 -32 12 -16 29 -23 52 -23 18 0 38 -7 45
-15 7 -8 28 -15 46 -15 19 0 34 -4 34 -9 0 -4 17 -8 38 -7 34 1 37 3 37 32 0
33 23 63 43 56 6 -2 15 3 18 12 3 9 10 13 16 10 5 -3 16 3 24 15 9 12 26 21
41 21 17 0 23 4 20 14 -4 9 0 12 12 9 10 -2 23 2 30 11 8 10 22 13 40 10 22
-5 29 -1 39 21 7 14 16 24 21 20 5 -3 21 0 35 6 20 10 23 15 15 26 -15 17 1
16 23 -1 10 -7 15 -16 11 -19 -6 -7 19 -11 45 -8 7 1 12 -10 12 -28 0 -38 10
-62 21 -55 5 3 7 10 3 15 -3 5 0 8 7 7 10 -2 13 12 13 52 0 38 5 59 15 67 14
11 13 12 -5 13 -14 0 -24 -8 -29 -22 -4 -14 -8 -18 -11 -11 -7 16 27 61 42 56
6 -2 14 5 17 17 3 11 10 20 15 20 6 0 8 -10 4 -22 -4 -17 -2 -20 12 -15 10 4
24 7 31 7 10 0 12 10 9 38 -4 32 -3 34 6 14 12 -29 21 -128 13 -160 -4 -18 -8
-20 -20 -11 -7 7 -12 18 -9 25 2 6 -1 20 -8 30 -10 14 -15 14 -21 4 -5 -9 -4
-15 3 -18 23 -7 12 -24 -12 -18 -14 3 -27 2 -30 -2 -8 -14 8 -31 28 -29 10 1
21 -4 24 -12 3 -10 -2 -12 -21 -7 -31 7 -44 -8 -20 -24 16 -10 16 -11 -4 -7
-13 3 -23 1 -23 -4 0 -5 9 -9 20 -9 11 0 23 -7 26 -15 4 -8 12 -15 20 -15 8 0
14 -7 14 -15 0 -8 -5 -15 -12 -15 -6 0 -9 -2 -6 -5 12 -12 38 8 33 25 -7 23
11 35 30 20 16 -13 30 3 21 25 -3 8 -1 15 4 15 5 0 7 7 4 14 -3 8 4 25 16 38
18 19 20 30 15 63 -7 38 -8 69 -4 125 1 14 -1 33 -6 44 -5 12 -3 21 6 27 10 6
10 9 2 9 -8 0 -13 13 -13 29 0 16 -4 31 -8 33 -5 2 -7 19 -5 39 5 33 7 36 34
33 31 -4 37 4 17 24 -10 10 -10 15 1 21 7 5 10 14 6 20 -5 9 -11 7 -21 -6 -12
-17 -13 -16 -14 9 0 15 4 29 9 32 5 3 7 15 4 26 -4 16 -2 19 11 14 11 -4 16
-1 16 12 0 14 3 15 12 6 17 -17 28 -15 26 6 -4 52 2 70 22 65 16 -4 20 -15 22
-49 0 -24 3 -61 4 -81 2 -21 6 -65 9 -98 2 -33 7 -69 9 -80 3 -11 8 -81 12
-155 3 -74 8 -138 11 -143 4 -7 3 -335 -2 -407 -1 -19 -3 -49 -4 -67 -1 -25
-6 -32 -23 -35 -20 -3 -23 -9 -23 -53 0 -43 -3 -50 -20 -50 -11 0 -21 -8 -23
-17 -2 -10 -9 -15 -18 -11 -8 3 -14 -1 -14 -9 0 -21 -39 -41 -55 -28 -10 8
-14 5 -17 -14 -3 -14 -1 -23 3 -20 12 7 11 -8 -1 -26 -9 -13 -14 -10 -35 15
-21 25 -27 27 -35 15 -6 -10 -3 -21 10 -35 24 -25 25 -35 5 -35 -8 0 -12 6
-10 13 6 13 -33 42 -43 32 -4 -4 1 -12 11 -19 19 -14 23 -41 7 -51 -20 -12
-10 -27 15 -23 26 5 35 -9 11 -18 -8 -3 -12 -13 -9 -25 3 -11 0 -19 -7 -19 -7
0 -10 7 -6 15 8 23 -22 30 -43 11 -11 -10 -17 -25 -14 -36 5 -19 -19 -54 -30
-44 -3 3 -10 -3 -16 -14 -9 -17 -7 -21 12 -27 13 -4 17 -8 10 -12 -7 -2 -13
-13 -13 -24 0 -10 -7 -19 -15 -19 -8 0 -15 -5 -15 -11 0 -5 -5 -7 -10 -4 -6 4
-8 11 -5 16 3 5 -1 6 -10 3 -16 -6 -15 -27 1 -86 3 -9 -1 -20 -7 -24 -9 -5
-10 -2 -6 10 6 14 3 16 -16 10 -12 -4 -29 -7 -37 -7 -19 0 -30 -16 -30 -46 0
-17 -4 -22 -16 -17 -8 3 -12 2 -9 -4 3 -6 -1 -10 -10 -10 -11 0 -15 -5 -11
-15 3 -8 9 -22 12 -30 4 -10 0 -15 -11 -15 -11 0 -15 5 -11 15 3 8 1 15 -4 15
-15 0 -22 -20 -12 -33 6 -7 6 -20 1 -32 -9 -18 -9 -18 -5 3 3 14 -1 22 -10 22
-8 0 -14 5 -14 10 0 6 -7 10 -16 10 -10 0 -14 -6 -10 -15 6 -17 -22 -35 -56
-35 l-23 -1 24 -19 c19 -17 26 -18 39 -8 13 11 14 10 10 -2 -2 -8 -19 -19 -36
-24 -25 -7 -32 -14 -32 -34 0 -21 -2 -22 -15 -12 -12 10 -15 10 -15 -4 0 -9 6
-16 13 -16 8 0 7 -3 -3 -10 -9 -6 -14 -24 -14 -50 1 -34 -1 -40 -20 -40 -11 0
-34 -7 -50 -15 -35 -18 -55 -19 -58 -2 0 6 -2 17 -2 23 -1 6 -8 19 -15 28 -13
15 -12 23 8 63 16 33 19 48 11 58 -6 7 -11 33 -12 57 -1 45 -17 98 -31 98 -5
0 -5 4 -2 10 3 6 0 10 -8 10 -8 0 -22 11 -31 25 -13 19 -21 23 -34 17 -22 -12
-41 -5 -72 27 -14 14 -39 33 -54 41 -16 8 -48 38 -71 67 -24 29 -45 49 -49 46
-3 -3 -9 3 -13 13 -4 10 -14 25 -22 32 -9 8 -11 11 -4 8 6 -4 15 -1 19 5 9 15
-23 39 -53 39 -18 0 -25 7 -29 30 -5 21 -12 30 -26 30 -11 0 -18 5 -15 13 2 6
10 12 17 12 8 0 17 11 20 25 3 14 10 25 15 26 73 8 122 60 116 121 -1 10 -7
10 -25 1 -48 -21 -62 2 -41 67 11 36 -27 72 -92 84 -104 21 -122 21 -132 3 -7
-12 -10 -13 -11 -3 0 8 -7 11 -20 8 -13 -3 -20 0 -20 9 0 16 -16 19 -25 5 -3
-5 0 -13 6 -17 8 -4 7 -9 -2 -15 -21 -13 -29 -11 -22 8 5 13 2 15 -18 10 -13
-4 -32 -7 -41 -7 -11 0 -15 -5 -12 -14 9 -23 -14 -28 -48 -11 -21 10 -34 12
-36 5 -2 -5 -8 -10 -14 -10 -6 0 -8 7 -4 15 3 9 0 15 -9 15 -8 0 -15 -7 -15
-15 0 -8 -4 -15 -10 -15 -5 0 -10 7 -10 15 0 17 -31 20 -46 5 -8 -8 -19 -8
-38 0 -15 5 -31 8 -36 5 -4 -3 -13 2 -20 10 -9 11 -23 14 -46 9 -19 -3 -40 -2
-47 4 -33 26 -144 20 -172 -10 -7 -7 -15 -28 -19 -47 -5 -27 -3 -32 9 -27 18
6 19 -7 4 -36 -9 -16 -17 -19 -41 -14 -29 6 -30 5 -24 -22 4 -15 13 -61 21
-104 7 -42 21 -91 30 -109 12 -22 16 -47 13 -81 -5 -44 -3 -48 16 -48 20 -1
20 -2 4 -14 -25 -18 -23 -39 2 -31 18 6 25 -3 21 -27 -1 -11 5 -10 29 2 48 24
56 26 80 19 14 -4 38 -7 53 -8 45 -2 97 -30 97 -53 0 -15 -4 -18 -17 -14 -36
14 -105 18 -126 8 -12 -5 -29 -13 -37 -16 -8 -3 -22 -10 -30 -14 -8 -5 -31
-17 -51 -26 -20 -10 -41 -28 -47 -40 -7 -16 -19 -23 -42 -24 -17 0 -37 -6 -44
-12 -38 -30 -81 43 -52 88 11 18 -1 62 -18 62 -7 0 -19 -7 -26 -15 -7 -8 -20
-15 -29 -15 -9 0 -28 -13 -43 -30 -15 -17 -36 -30 -50 -30 -24 0 -79 -51 -91
-82 -4 -10 -13 -18 -22 -18 -9 0 -15 -6 -14 -12 2 -7 -6 -31 -16 -53 -10 -22
-19 -63 -19 -92 -1 -29 -7 -58 -13 -64 -7 -7 -13 -28 -13 -45 0 -26 -6 -37
-30 -51 -17 -10 -28 -23 -26 -30 3 -7 1 -13 -3 -13 -5 0 -11 7 -15 15 -3 8
-23 23 -45 32 -22 9 -45 27 -52 40 -7 12 -16 20 -21 17 -4 -3 -8 1 -8 8 0 10
-2 10 -9 0 -6 -10 -10 -6 -15 14 -5 18 -10 24 -15 16 -4 -7 -14 5 -25 33 -11
24 -27 47 -37 50 -11 4 -19 13 -19 21 0 17 -16 19 -24 2 -3 -7 -3 0 1 16 5 26
4 28 -17 21 -20 -6 -22 -4 -17 14 5 20 -8 31 -15 12 -8 -23 -32 -14 -38 14 -5
27 -9 30 -38 27 -26 -2 -32 2 -32 18 0 11 -7 23 -15 26 -8 4 -15 14 -15 24 0
10 -11 25 -25 34 -14 9 -28 28 -31 42 -4 16 -12 23 -20 20 -9 -3 -14 2 -14 14
0 33 -44 120 -61 120 -9 0 -22 11 -29 25 -7 14 -28 30 -46 37 -18 6 -31 15
-28 20 3 4 -2 20 -9 35 -8 15 -18 44 -22 63 -4 19 -16 43 -26 53 -11 10 -19
31 -19 48 0 22 -4 30 -14 26 -20 -8 -60 83 -54 125 3 19 -3 58 -14 91 -10 32
-21 83 -22 113 -2 30 -9 61 -16 69 -7 9 -8 15 -2 15 9 0 16 42 27 160 6 63 43
297 54 345 5 22 13 72 16 110 4 39 13 76 19 84 6 8 9 15 7 15 -6 2 9 183 21
251 5 33 9 79 8 102 -1 41 24 83 50 83 5 0 10 7 10 15 0 8 4 15 10 15 5 0 20
16 32 35 29 44 39 44 32 3 -5 -31 -3 -29 28 20 18 28 37 51 43 49 12 -4 22 6
58 60 29 42 67 63 67 36 0 -23 14 -9 65 67 47 70 75 88 75 50 0 -26 4 -25 48
9 37 30 132 76 132 64 0 -3 11 6 25 21 13 14 29 26 36 26 7 0 24 13 38 29 14
16 35 30 46 32 11 3 21 13 23 24 2 11 9 25 17 30 17 14 55 87 50 96 -3 4 2 10
11 13 13 5 14 9 4 21 -7 9 -8 15 -2 15 14 0 10 49 -5 54 -8 3 -10 -1 -7 -12 5
-14 4 -15 -5 -2 -17 24 -13 46 14 71 13 13 25 30 25 37 0 6 5 12 12 12 9 0 9
3 0 12 -7 7 -8 17 -2 27 7 14 23 17 79 15 39 -1 71 2 71 6 0 12 -29 20 -35 11
-6 -11 -45 -3 -65 14 -8 7 -23 15 -32 18 -11 4 -15 13 -11 26 7 27 0 26 -33
-4 -25 -23 -26 -27 -14 -50 7 -14 10 -28 5 -32 -4 -5 -10 -2 -12 5 -3 6 -11
12 -18 12 -7 0 -16 -6 -19 -12 -4 -9 -5 -8 -5 2 3 38 0 43 -16 30 -12 -10 -19
-10 -27 -2 -15 15 7 42 34 42 19 0 19 1 5 24 -17 26 -11 68 16 110 8 12 18 37
22 56 10 45 44 111 70 132 16 14 17 17 4 18 -13 0 -9 13 18 68 37 76 54 92 91
87 22 -2 27 -7 25 -29 -2 -32 3 -32 33 -3 30 30 48 46 52 47 1 0 22 -19 45
-42z m1855 -393 c16 -17 24 -38 25 -68 2 -36 5 -43 19 -39 13 3 18 -2 18 -17
0 -27 -35 -62 -55 -55 -8 4 -15 1 -15 -4 0 -16 41 -26 50 -12 6 9 12 10 26 1
11 -6 13 -11 7 -11 -20 0 -15 -24 8 -38 12 -8 19 -10 16 -5 -3 4 0 19 7 32 14
25 33 13 22 -14 -3 -8 0 -15 7 -15 16 0 41 -54 27 -58 -16 -6 -12 -22 5 -22
11 0 15 -11 15 -36 0 -19 7 -42 15 -51 11 -10 14 -29 11 -62 l-4 -48 39 2 c43
2 64 -13 30 -22 -12 -3 -21 -10 -21 -15 0 -6 11 -7 25 -4 24 6 24 5 -8 -26
-43 -42 -54 -68 -27 -68 11 0 20 -4 20 -9 0 -13 -32 -23 -39 -12 -4 6 -11 7
-17 3 -17 -11 -22 -60 -8 -79 12 -17 14 -17 31 1 13 13 15 20 6 23 -19 7 -16
21 5 19 25 -2 32 -16 20 -42 -11 -24 -5 -54 11 -54 6 0 8 7 5 15 -4 8 -1 15 4
15 6 0 12 7 14 15 2 10 7 12 18 5 10 -7 12 -12 4 -17 -6 -5 -14 -18 -18 -30
-4 -13 -14 -23 -22 -23 -8 0 -14 -4 -14 -10 0 -5 9 -10 19 -10 11 0 21 -6 24
-12 7 -20 39 15 42 45 2 14 8 34 15 44 10 15 10 14 5 -11 -5 -26 -4 -28 15
-23 20 5 21 4 6 -12 -20 -22 -21 -35 -2 -28 8 3 20 -1 27 -9 10 -13 10 -17 -2
-25 -11 -7 -11 -9 4 -9 9 0 17 -7 17 -15 0 -8 -7 -15 -15 -15 -8 0 -15 -7 -15
-15 0 -8 -4 -15 -10 -15 -5 0 -10 5 -10 11 0 6 -9 1 -19 -12 -11 -13 -15 -25
-10 -27 5 -2 9 -9 9 -16 0 -14 39 -54 41 -43 1 4 2 11 3 16 0 5 4 13 9 17 7 7
11 -9 8 -32 -1 -6 6 -17 14 -24 19 -16 19 -41 0 -115 -9 -32 -12 -62 -7 -67
10 -10 3 -70 -8 -63 -5 3 -11 24 -15 48 -4 23 -12 45 -17 48 -6 4 -10 18 -10
32 0 19 -7 27 -25 32 -13 3 -27 13 -30 21 -3 9 -24 34 -47 57 -22 24 -48 54
-57 67 -9 14 -29 32 -45 40 -16 8 -40 25 -54 38 -16 14 -34 21 -48 19 -16 -3
-20 -1 -12 8 7 8 -2 22 -31 48 -22 21 -43 37 -45 37 -2 0 -4 -11 -4 -24 0 -28
-22 -49 -53 -51 -12 -1 -33 -5 -46 -9 -16 -6 -21 -5 -17 3 4 6 1 9 -7 5 -10
-3 -20 8 -31 36 -14 36 -19 40 -44 35 -24 -4 -28 -1 -28 17 1 11 -5 23 -12 25
-7 3 -11 1 -10 -4 2 -4 0 -9 -4 -10 -20 -7 -28 -1 -28 20 0 13 -8 32 -19 41
-18 16 -19 16 -25 -9 -4 -14 -11 -23 -17 -20 -6 4 -6 11 -1 18 12 17 -1 62
-19 61 -8 -1 -24 -4 -36 -8 -17 -5 -23 -3 -23 7 0 9 6 17 12 19 10 4 10 10 1
31 -14 29 -9 35 11 14 7 -7 11 -18 8 -26 -3 -8 1 -12 9 -9 8 3 15 11 15 19 1
8 3 19 4 24 1 6 2 43 2 83 1 76 6 87 24 48 9 -20 9 -23 -3 -19 -11 4 -14 0
-12 -12 6 -28 24 -28 39 0 17 33 34 27 38 -13 4 -39 32 -66 32 -31 1 24 1 23
16 -4 8 -15 12 -32 9 -37 -3 -6 -2 -10 3 -10 18 0 21 28 5 49 -8 12 -12 25 -8
29 3 3 10 0 16 -8 8 -13 11 -13 19 2 8 12 19 15 49 11 32 -4 40 -2 44 13 3 14
6 11 12 -13 4 -18 11 -33 16 -33 4 0 11 -9 14 -21 7 -20 32 -21 27 0 -1 6 1
10 5 10 25 -4 43 3 43 16 0 8 7 15 16 15 13 0 14 3 5 13 -6 8 -8 17 -4 20 3 4
-1 7 -11 7 -9 0 -14 5 -11 10 4 6 11 8 16 5 5 -4 9 8 9 25 0 18 -4 29 -10 25
-5 -3 -10 -13 -10 -21 0 -8 -4 -14 -10 -14 -5 0 -10 12 -10 26 0 16 -4 23 -12
18 -7 -4 -8 -3 -4 4 4 7 13 12 19 12 7 0 18 10 26 22 12 19 11 23 -3 33 -9 7
-16 22 -16 33 0 11 -4 24 -10 27 -5 3 -10 13 -10 21 0 10 5 9 20 -6 22 -22 40
-26 40 -10 0 6 -5 10 -11 10 -13 0 -65 40 -53 41 5 0 -2 5 -16 11 l-25 11 25
7 c21 7 22 8 4 9 -16 1 -21 8 -22 41 -2 24 2 40 8 40 6 0 10 -8 9 -17 -3 -31
1 -36 16 -23 12 10 13 16 3 27 -9 11 -9 16 3 24 11 7 9 9 -8 9 -16 0 -23 6
-23 20 0 11 -7 20 -15 20 -17 0 -20 23 -5 51 14 26 40 24 68 -6z m-2462 -170
c10 -8 26 -15 35 -15 20 0 31 -55 18 -85 -30 -70 -96 -135 -141 -140 -38 -5
-62 10 -34 21 21 8 20 22 -1 20 -10 0 -19 10 -23 26 -6 20 -5 25 5 22 16 -7
29 12 15 21 -5 3 -10 11 -10 17 0 7 5 6 15 -2 12 -10 16 -10 19 1 12 38 13 60
5 65 -5 3 -6 10 -3 16 4 7 9 6 14 -2 6 -9 12 -9 30 0 12 6 28 9 36 6 8 -3 14
-2 14 3 0 14 -26 31 -35 23 -5 -4 -5 -1 -1 6 9 16 18 15 42 -3z m2406 -1434
c15 -14 28 -39 30 -56 2 -16 7 -33 12 -36 4 -4 0 -15 -11 -26 -30 -30 -88 -53
-133 -53 l-41 0 21 30 c27 39 51 118 44 153 -4 26 -3 27 23 21 16 -3 40 -18
55 -33z m-1572 -1772 c30 -6 71 -18 90 -26 50 -23 140 -93 140 -109 0 -21 -17
-17 -34 8 -15 21 -17 22 -33 4 -17 -17 -17 -18 12 -42 26 -21 28 -26 17 -44
-7 -11 -10 -20 -8 -20 2 0 12 -3 21 -6 10 -4 15 -2 13 6 -2 7 2 14 8 17 14 5
60 -65 50 -75 -10 -9 -42 14 -38 27 1 6 -11 11 -28 11 -16 0 -30 -4 -30 -10 0
-13 -37 -13 -46 1 -3 6 -15 9 -25 6 -25 -7 -69 14 -69 33 -1 12 -3 11 -11 -2
-5 -10 -17 -18 -24 -18 -8 0 -15 -6 -15 -13 0 -8 -10 -13 -22 -12 -13 1 -26
-2 -29 -8 -4 -5 -13 -6 -20 -2 -7 5 -25 9 -41 9 -23 1 -28 -3 -28 -22 0 -13
-3 -21 -7 -19 -11 7 -8 -44 4 -74 6 -14 11 -32 10 -40 -1 -8 2 -15 6 -16 5 -1
22 -20 38 -42 16 -23 37 -41 48 -41 10 0 25 -7 32 -16 7 -9 22 -20 34 -25 11
-5 27 -13 35 -18 36 -21 77 -35 108 -36 18 0 36 -6 41 -14 7 -11 13 -10 35 4
24 16 31 14 27 -7 0 -5 6 -8 14 -8 26 0 71 -53 73 -85 1 -16 7 -32 12 -33 6
-2 8 -8 5 -12 -3 -5 -8 -28 -11 -52 -7 -50 -20 -69 -40 -61 -10 4 -12 0 -8
-11 3 -9 1 -16 -5 -16 -8 0 -10 15 -6 44 6 54 -12 77 -39 47 -9 -10 -14 -24
-12 -32 8 -21 -21 -56 -35 -42 -7 7 -21 8 -41 3 -22 -7 -30 -5 -35 6 -3 7 -9
14 -15 14 -5 0 -6 -4 -3 -10 10 -15 -14 -50 -34 -50 -14 0 -18 5 -14 20 4 16
2 19 -11 14 -9 -3 -16 -10 -16 -16 0 -10 -25 -38 -33 -38 -3 0 -4 8 -3 18 1
12 -8 18 -28 20 -18 2 -26 0 -21 -7 3 -6 -1 -14 -9 -17 -9 -3 -16 -12 -16 -19
0 -16 -48 -26 -53 -11 -2 7 -13 4 -30 -7 -33 -22 -53 -22 -66 1 -9 15 -12 15
-21 2 -8 -13 -10 -13 -10 2 0 24 -20 33 -36 16 -11 -11 -12 -21 -5 -39 9 -26
-10 -81 -22 -62 -3 5 -2 15 4 23 13 21 11 36 -3 22 -20 -20 -32 -13 -14 7 17
19 17 20 -2 30 -12 6 -27 9 -34 6 -10 -4 -14 3 -13 22 0 24 -4 28 -28 28 -26
1 -51 21 -42 36 3 3 -7 12 -20 19 -19 10 -25 22 -25 45 0 28 -3 33 -25 33 -14
0 -29 2 -32 6 -11 10 -11 110 -1 123 7 8 4 20 -7 35 -12 15 -15 17 -12 6 4
-10 2 -18 -3 -18 -6 0 -10 -7 -10 -15 0 -8 -4 -15 -10 -15 -5 0 -10 8 -10 18
0 10 -5 23 -11 29 -8 8 -7 13 2 18 8 5 10 4 5 -3 -4 -7 -3 -12 1 -12 5 0 14
10 21 21 13 20 12 21 -17 17 -20 -3 -30 -1 -28 6 2 6 12 11 23 11 14 0 19 7
20 28 1 15 -2 27 -7 27 -4 0 -5 9 -2 20 4 15 0 20 -16 20 -19 0 -20 3 -11 21
7 11 9 23 7 25 -3 3 1 30 8 60 7 30 8 54 4 54 -5 0 -9 7 -9 16 0 10 6 14 15
10 9 -3 15 0 15 9 0 8 -7 15 -15 15 -8 0 -15 3 -15 8 0 11 16 34 24 33 19 -3
26 3 57 49 31 47 37 50 67 46 24 -4 38 0 53 15 10 10 22 19 25 19 3 0 20 6 37
14 18 8 50 19 72 24 22 6 63 19 90 29 60 23 112 26 185 12z m689 -711 c8 13
41 6 41 -8 0 -5 9 -11 19 -15 13 -4 18 -12 14 -22 -5 -12 -1 -14 17 -8 19 6
22 4 17 -9 -4 -9 -2 -16 3 -16 5 0 6 -7 3 -17 -4 -10 -2 -14 5 -9 6 3 14 -3
18 -16 8 -26 -20 -51 -48 -42 -13 4 -18 0 -18 -16 0 -18 -3 -19 -22 -9 -18 10
-24 8 -36 -7 -9 -12 -16 -15 -19 -7 -9 23 -67 77 -71 65 -2 -7 -11 -12 -21
-12 -25 0 -71 23 -71 36 0 7 -10 14 -22 18 -18 5 -20 8 -10 15 8 5 12 20 10
36 -4 40 15 41 30 3 12 -30 14 -31 26 -16 7 10 16 15 20 11 4 -4 4 0 1 9 -5
13 2 17 34 23 23 4 38 11 35 17 -3 5 4 4 15 -4 18 -11 23 -11 30 0z m1981
-250 c0 -5 -9 -6 -20 -3 -22 7 -28 -10 -6 -18 9 -4 12 -18 10 -47 -4 -50 -9
-59 -40 -70 -23 -9 -24 -11 -9 -33 14 -22 14 -25 -5 -42 -11 -10 -20 -14 -20
-9 0 5 -18 9 -40 9 l-39 -1 21 23 c12 13 27 23 35 23 7 0 13 5 13 11 0 5 -4 7
-10 4 -6 -4 -10 5 -10 19 0 14 5 26 11 26 5 0 8 4 5 9 -9 14 4 41 20 41 8 0
11 6 8 15 -6 16 29 68 40 58 3 -3 6 -1 6 7 0 10 3 10 15 0 8 -7 15 -17 15 -22z
m-3209 -2959 c8 -16 7 -48 -5 -129 -9 -60 -16 -122 -16 -139 0 -24 -4 -31 -20
-31 -17 0 -19 4 -14 26 11 45 10 69 -4 66 -8 -1 -35 -3 -60 -4 -26 -1 -50 -7
-54 -12 -4 -6 -8 -1 -8 12 0 12 -4 22 -10 22 -5 0 -10 -8 -10 -17 0 -14 -3
-14 -12 -5 -8 8 -14 45 -15 94 -2 83 14 127 46 128 11 0 11 -4 -2 -18 -24 -26
-30 -72 -18 -120 13 -47 36 -58 99 -48 20 3 46 6 57 7 13 0 16 2 7 8 -9 5 -8
12 5 26 24 25 19 111 -8 141 -11 11 -16 23 -13 27 10 10 42 -11 55 -34z m-43
-394 c13 0 16 -7 13 -35 -3 -39 -12 -48 -44 -46 -12 1 -26 -3 -30 -9 -6 -7
-10 -6 -14 3 -2 6 -12 12 -22 12 -9 0 -23 6 -30 13 -7 6 -12 8 -11 2 2 -5 2
-17 1 -25 -1 -12 -3 -12 -15 0 -8 8 -17 25 -21 38 -5 19 -3 22 18 22 16 0 26
7 30 19 7 27 77 44 95 22 7 -9 20 -16 30 -16z m41 -202 c32 -119 42 -176 32
-186 -8 -8 -11 -4 -11 11 0 24 -15 30 -23 10 -2 -7 -8 -9 -13 -5 -5 5 -1 14 9
21 9 7 17 19 17 25 0 8 -5 7 -16 -3 -19 -19 -31 -21 -15 -3 18 23 -9 50 -38
39 -32 -12 -68 -4 -75 16 -3 10 -8 22 -11 28 -7 13 47 29 108 33 9 1 17 5 17
11 0 5 -6 8 -12 6 -7 -3 -32 -7 -55 -10 -35 -5 -41 -4 -37 9 5 11 2 14 -12 9
-11 -4 -16 -4 -12 1 9 10 65 23 105 24 29 1 33 -3 42 -36z"/>
<path d="M2205 10050 c-22 -3 -49 -11 -60 -17 -51 -27 -133 -63 -143 -63 -6 0
-9 -7 -6 -15 4 -10 0 -15 -12 -16 -11 -1 -26 -2 -34 -3 -8 0 -30 2 -48 5 -20
4 -37 2 -45 -4 -14 -14 -70 -17 -78 -5 -7 11 -79 -30 -79 -45 0 -8 -3 -7 -9 1
-6 10 -16 9 -45 -9 -41 -24 -59 -50 -50 -73 5 -12 2 -15 -12 -9 -12 4 -15 3
-10 -5 4 -8 2 -10 -7 -6 -11 4 -15 -3 -15 -30 0 -26 4 -33 14 -29 10 4 12 0 8
-11 -3 -9 -1 -16 5 -16 6 0 11 5 11 11 0 5 4 8 10 4 5 -3 6 -13 3 -21 -4 -12
-14 -14 -37 -10 -25 4 -27 4 -13 -5 21 -12 77 -2 77 14 0 8 3 8 12 -1 9 -9 9
-17 1 -34 -16 -33 -13 -58 9 -58 21 0 23 11 6 28 -6 6 -8 15 -3 19 4 5 10 3
12 -3 5 -15 44 -6 60 13 8 10 19 12 35 7 13 -4 33 -7 45 -5 28 3 37 -13 22
-40 -9 -17 -13 -19 -20 -8 -7 11 -9 10 -9 -3 0 -11 -8 -18 -19 -18 -29 0 -51
-11 -51 -25 0 -20 -28 -26 -38 -8 -7 11 -16 14 -28 9 -18 -7 -17 -8 5 -25 l24
-19 -27 -25 c-15 -14 -25 -31 -21 -37 11 -18 -5 -50 -26 -50 -20 0 -26 24 -9
35 15 10 12 35 -5 35 -8 0 -15 -8 -15 -17 -1 -10 -7 -29 -15 -43 -13 -24 -14
-23 -9 18 3 25 1 42 -6 42 -5 0 -10 -18 -10 -39 0 -46 -9 -73 -21 -65 -5 3 -9
-2 -9 -10 0 -9 4 -16 9 -16 5 0 12 -7 15 -16 5 -12 2 -15 -10 -10 -11 4 -14 1
-12 -12 1 -9 -1 -23 -6 -31 -6 -10 -5 -12 2 -7 7 4 5 -9 -4 -31 -11 -24 -12
-39 -6 -41 6 -2 8 -10 5 -19 -4 -10 -2 -14 5 -9 6 3 13 2 17 -4 3 -5 1 -10 -4
-10 -6 0 -11 -7 -11 -15 0 -8 5 -15 12 -15 6 0 8 -3 5 -6 -10 -11 14 -50 63
-102 13 -15 24 -30 22 -34 -3 -11 38 -30 53 -24 9 3 12 0 8 -10 -4 -10 0 -12
11 -8 11 4 16 1 16 -10 0 -9 7 -16 15 -16 8 0 15 5 15 10 0 6 5 10 11 10 6 0
8 -7 5 -17 -4 -10 -4 -14 -1 -11 13 13 94 -20 120 -48 15 -16 30 -29 33 -30
15 -2 49 -19 70 -35 13 -10 29 -16 36 -13 8 3 38 -2 67 -10 84 -24 118 -22
189 11 85 39 235 140 282 189 121 129 167 192 228 313 23 47 64 116 91 154 27
39 49 75 49 81 0 7 9 18 20 26 11 8 20 20 20 28 0 7 7 15 15 18 11 4 13 13 9
28 -4 11 -3 18 1 14 4 -4 20 1 35 12 16 11 36 20 47 20 15 0 16 2 3 10 -13 9
-13 10 1 10 13 0 15 15 15 87 -1 84 -2 87 -26 93 -25 6 -35 38 -16 51 4 4 3
10 -3 13 -6 4 -11 3 -11 -3 0 -6 -6 -8 -14 -5 -8 3 -17 0 -22 -7 -5 -9 -2 -10
9 -6 13 5 17 1 17 -15 0 -18 -2 -19 -17 -7 -10 8 -26 23 -36 34 -14 15 -22 17
-35 9 -13 -9 -20 -6 -33 10 -9 12 -34 30 -55 41 -22 10 -50 27 -63 37 -21 16
-26 16 -44 3 -18 -13 -23 -13 -37 0 -10 9 -43 16 -81 19 -35 1 -58 1 -51 -1
18 -7 4 -23 -19 -23 -11 0 -22 -7 -25 -15 -13 -33 -182 3 -176 38 2 9 -2 17
-8 17 -5 0 -10 -4 -10 -9 0 -14 -58 -19 -72 -6 -8 7 -28 9 -53 5z m-232 -753
c8 -34 18 -70 22 -79 11 -27 -32 -31 -100 -9 -52 17 -60 22 -57 42 1 13 6 26
10 29 4 3 13 17 21 31 7 15 24 33 37 40 13 7 24 17 24 22 0 5 6 4 14 -2 8 -7
21 -40 29 -74z"/>
<path d="M430 8675 c0 -52 27 -65 136 -64 49 1 100 -3 114 -8 14 -6 42 -18 64
-27 55 -23 66 -21 66 14 0 36 -31 70 -65 70 -13 0 -89 11 -167 25 -78 14 -144
25 -145 25 -2 0 -3 -16 -3 -35z"/>
</g>
</svg>
